<?xml version="1.0" encoding="UTF-8"?>
<svg id="Camada_1" data-name="Camada 1" xmlns="http://www.w3.org/2000/svg" viewBox="0 0 464.21 182.71">
  <g>
    <path d="m120.19,24.23c-.3,1.77-1.33,6.42-5.3,10.61-4.08,4.29-8.83,5.52-10.57,5.89-.03.03-.17.18-.17.42,0,.15.05.3.16.42,2.07.7,6.4,2.48,10.24,6.72,3.74,4.13,5.11,8.47,5.63,10.6.17.19.44.25.67.16.22-.09.39-.29.39-.57V24.66c0-.55-.67-.82-1.05-.42Z" style="fill: #ebad2c; stroke-width: 0px;"/>
    <path d="m121.1,24.23c.3,1.77,1.33,6.42,5.3,10.61,4.08,4.29,8.83,5.52,10.57,5.89.03.03.17.18.17.42,0,.15-.05.3-.16.42-2.07.7-6.4,2.48-10.24,6.72-3.74,4.13-5.11,8.47-5.63,10.6-.17.19-.44.25-.67.16-.22-.09-.39-.29-.39-.57V24.66c0-.55.67-.82,1.05-.42Z" style="fill: #ebad2c; stroke-width: 0px;"/>
  </g>
  <g>
    <path d="m100.6,67.94l28.32-3.54v56.63l.1,7.45c0,4.44.26,7.69.79,9.75.52,2.06,1.54,3.77,3.05,5.14,1.83,1.76,5.21,3.1,10.13,4.02v2.06h-43.46v-2.06c3.93-.52,6.75-1.25,8.46-2.2,1.7-.95,3.08-2.56,4.13-4.84.72-1.5,1.23-3.77,1.52-6.8.29-3.03.44-7.42.44-13.16v-24.16c0-6.72-.16-11.43-.49-14.13-.33-2.71-1.05-4.91-2.16-6.6-1.12-1.83-2.46-3.15-4.03-3.96-1.57-.81-3.83-1.32-6.78-1.52v-2.06Z" style="fill: #f0faf1; stroke-width: 0px;"/>
    <path d="m176.15,64.91c.92,3.82,1.39,7.38,1.39,10.68v1.58c8.13-8.17,17.8-12.26,29.01-12.26,8.39,0,15.14,1.96,20.25,5.89,5.05,3.86,7.57,9.36,7.57,16.5v41.64c0,4.45.26,7.71.79,9.77.52,2.06,1.54,3.78,3.05,5.16,1.83,1.77,5.21,3.11,10.13,4.03v2.06c-15.32-.05-30.64-.1-45.95-.14-.05-.75-.1-1.5-.15-2.25,1.01.24,6.44,1.41,11.1-1.88.42-.3,2.69-1.86,4.13-4.86.72-1.51,1.23-3.78,1.52-6.82s.44-7.41.44-13.11v-20.82c0-7.14-.24-12.37-.73-15.71-.49-3.34-1.42-6.02-2.8-8.05-1.5-2.29-3.66-4.07-6.47-5.35-2.81-1.28-5.92-1.92-9.32-1.92-3.66,0-7.08.72-10.25,2.16-3.17,1.44-5.67,3.4-7.5,5.89-1.96,2.62-3.26,5.58-3.88,8.89-.62,3.31-.93,8.79-.93,16.45v19.25l.1,7.27c0,.29.04,6,.79,9.77.29,1.49.72,2.78,1.64,4.01.09.11.29.38.64.75,2.04,2.17,4.7,3.28,4.84,3.34,3.39,1.39,6.52.98,7.76.75v2.32c-15.05.02-30.11.05-45.16.07v-2.06c3.93-.52,6.75-1.25,8.46-2.2,1.7-.95,3.08-2.56,4.13-4.84.72-1.5,1.23-3.77,1.52-6.8.29-3.03.44-7.42.44-13.16v-24.16c0-6.72-.16-11.43-.49-14.13-.33-2.71-1.05-4.91-2.16-6.6-1.12-1.83-2.46-3.15-4.03-3.96-1.57-.81-3.83-1.32-6.78-1.52v-2.06l26.93-3.54Z" style="fill: #f0faf1; stroke-width: 0px;"/>
    <path d="m0,145.92l.31-43.17,2.4.1c2.93,10.99,6.41,19.64,10.45,25.97,7.59,11.68,17.14,17.52,28.64,17.52,8.01,0,14.63-2.68,19.86-8.05,5.23-5.37,7.84-12.16,7.84-20.38,0-3.55-.57-7.18-1.72-10.87-1.15-3.69-2.7-6.86-4.65-9.51-2.02-2.72-4.86-5.33-8.52-7.84-3.66-2.51-9.25-5.68-16.78-9.51-6.62-3.34-11.69-6.17-15.21-8.47-3.52-2.3-6.36-4.63-8.52-7-5.99-6.55-8.99-14.53-8.99-23.94,0-5.78,1.17-11.36,3.5-16.73,2.33-5.37,5.59-9.96,9.77-13.8C25.78,3.42,34.53,0,44.63,0c3.27,0,6.31.33,9.09.99,2.79.66,6.52,1.97,11.18,3.92,3.48,1.4,5.85,2.28,7.11,2.67,1.25.38,2.37.58,3.35.58,2.44,0,4.08-1.78,4.91-5.33h2.4l.73,41.5h-2.4c-1.88-6.62-3.5-11.69-4.85-15.21-1.36-3.52-2.97-6.78-4.85-9.77-3.41-5.44-7.17-9.46-11.27-12.07s-8.83-3.92-14.19-3.92c-7.79,0-13.95,2.65-18.47,7.95-1.88,2.16-3.36,4.71-4.44,7.64-1.08,2.93-1.62,5.86-1.62,8.79,0,11.65,7.48,21.03,22.44,28.15l14.72,7.11c11.34,5.37,19.52,11.3,24.53,17.79,5.71,7.25,8.56,15.7,8.56,25.32,0,6.4-1.29,12.51-3.87,18.35-3.62,8.13-9.06,14.41-16.31,18.82-7.25,4.41-15.78,6.62-25.61,6.62-8.99,0-17.63-1.78-25.92-5.33-4.32-1.88-6.9-2.96-7.74-3.24-.84-.28-1.78-.42-2.82-.42-3.34,0-5.64,1.67-6.9,5.02H0Z" style="fill: #f0faf1; stroke-width: 0px;"/>
    <path d="m361.98,81.18c2.39-4.03,5.09-7.07,8.08-9.12,1.97-1.35,3.55-2.63,6.1-3.28,5.34-1.37,9.76.94,10.51,1.36,1.36.74,5.25,2.86,6.08,6.86.13.66.57,2.8-.67,4.72-.04.06-.08.13-.14.21-1.3,1.78-4.89,2.67-6.98,1.06-1.67-1.28-1.7-3.63-1.72-5.03-.02-1.22-.16-7.02-2.85-8.02-1.7-.63-3.27.22-5.51,1.43-5.26,2.84-7.22,7.85-7.79,8.85,0,0,0,0,0,0-4.2,8.95-4.01,19.4-3.79,23.51v17.95l.1,7.29c0,4.35.26,7.53.8,9.55.53,2.01,1.56,3.7,3.09,5.04,1.86,1.73,5.29,3.04,10.27,3.94v2.02h-44.08v-2.02c3.99-.51,6.85-1.23,8.58-2.15,1.73-.92,3.12-2.5,4.19-4.73.73-1.47,1.25-3.68,1.55-6.64.3-2.96.45-7.25.45-12.86v-23.61c0-6.56-.17-11.17-.5-13.81-.33-2.65-1.06-4.8-2.19-6.45-1.13-1.78-2.49-3.08-4.09-3.87-1.59-.8-3.89-1.29-6.88-1.48v-2.02l25.71-3.46c1.14,5.75,1.71,10.68,1.71,14.79Z" style="fill: #f0faf1; stroke-width: 0px;"/>
    <g>
      <path d="m318.84,149.99c-2.73-.1-7.05-.25-10.91-2.71-3.44-2.19-5.29-5.42-6.28-7.84-4.38,3.92-7.69,6.51-9.91,7.75-4.25,2.35-9.19,3.53-14.81,3.53-7.2,0-12.9-1.73-17.12-5.2-4.22-3.46-6.33-8.14-6.33-14.02,0-5.43,1.73-9.97,5.19-13.63,1.96-2.03,4.21-3.64,6.76-4.85,2.55-1.21,6.24-2.44,11.07-3.68,5.68-1.44,9.88-2.65,12.59-3.63,2.71-.98,4.98-2.16,6.81-3.53,2.09-1.5,3.53-3.27,4.31-5.3.78-2.02,1.18-4.84,1.18-8.43,0-7.65-1.44-13.24-4.31-16.77-1.31-1.63-2.99-2.94-5.05-3.92-1.42-.68-3.44-1.13-4.03-1.28-1.2-.3-1.8-.45-2.28-.48-2.79-.16-4.93,1.36-5.6,1.86-.59.43-1.03.76-1.46,1.35-1.11,1.52-.92,3.1-1.01,4.84-.09,1.65-.3,5.68-2.36,7.31-.53.42-2.15,1.45-5.85.34-.5-.38-1.87-1.54-2.25-3.49-.34-1.74.32-3.13.79-4.16.73-1.61,1.77-2.59,2.36-3.15.21-.2.39-.35.56-.49,0,0,.77-.63,1.69-1.2,5.06-3.14,8.89-3.99,8.89-3.99,1.55-.34,2.7-.42,3.97-.51,4.79-.32,8.45.42,11.21.99,3.83.8,7.09,1.8,10.99,4.02,4.25,2.42,6.9,5.56,7.95,9.41.52,1.96.79,5.26.79,9.9v36.28c.15,4.96.46,9.19.78,12.55.29,3.07.56,5.14,2.17,6.81,1.48,1.54,3.35,1.95,5.21,2.36,4.51.99,2.86,2.77.88,2.88,0,0-3.41.19-6.58.07Zm-17.26-49.19c-3.52,2.94-7.39,5.53-11.62,7.75-4.75,2.55-8.04,4.48-9.86,5.79-1.82,1.31-3.48,2.88-4.98,4.71-3.06,3.79-4.59,8.21-4.59,13.24,0,4.31,1.19,7.88,3.56,10.69,2.38,2.81,5.39,4.22,9.03,4.22,3.19,0,6.2-1,9.03-2.99,2.83-1.99,4.96-4.66,6.4-7.99,2.02-4.38,3.03-10.72,3.03-19.02v-16.38Z" style="fill: #f0faf1; stroke-width: 0px;"/>
      <polygon points="327.42 149.93 324.52 149.93 324.54 147.03 327.42 147.18 327.42 149.93" style="fill: #f0faf1; stroke-width: 0px;"/>
    </g>
    <g>
      <path d="m456.64,149.65c-2.73-.1-7.05-.25-10.91-2.64-3.44-2.13-5.29-5.29-6.28-7.65-4.38,3.82-7.69,6.34-9.91,7.55-4.25,2.29-9.19,3.44-14.81,3.44-7.2,0-12.9-1.69-17.12-5.07-4.22-3.38-6.33-7.93-6.33-13.67,0-5.29,1.73-9.72,5.19-13.28,1.96-1.97,4.21-3.55,6.76-4.73,2.55-1.18,6.24-2.37,11.07-3.58,5.68-1.4,9.88-2.58,12.59-3.54,2.71-.96,4.98-2.1,6.81-3.44,2.09-1.46,3.53-3.18,4.31-5.16.78-1.97,1.18-4.71,1.18-8.22,0-7.45-1.44-12.9-4.31-16.34-1.31-1.59-2.99-2.87-5.05-3.82-1.42-.66-3.44-1.1-4.03-1.24-1.2-.29-1.8-.44-2.28-.47-2.79-.16-4.93,1.33-5.6,1.81-.59.42-1.03.74-1.46,1.32-1.11,1.48-.92,3.02-1.01,4.71-.09,1.61-.3,5.53-2.36,7.13-.53.41-2.15,1.41-5.85.33-.5-.37-1.87-1.5-2.25-3.4-.34-1.7.32-3.05.79-4.06.73-1.57,1.77-2.53,2.36-3.07.21-.19.39-.34.56-.47,0,0,.77-.61,1.69-1.17,5.06-3.06,8.89-3.89,8.89-3.89,1.55-.33,2.7-.41,3.97-.49,4.79-.31,8.45.41,11.21.97,3.83.78,7.09,1.76,10.99,3.92,4.25,2.36,6.9,5.42,7.95,9.17.52,1.91.79,5.13.79,9.65v35.36c.15,4.83.46,8.96.78,12.23.29,3,.56,5.01,2.17,6.63,1.48,1.5,3.35,1.9,5.21,2.3,2.12.45,1.93,2.75.88,2.81,0,0-3.41.18-6.58.07Zm-17.26-47.94c-3.52,2.87-7.39,5.39-11.62,7.55-4.75,2.48-8.04,4.36-9.86,5.64-1.82,1.27-3.48,2.8-4.98,4.59-3.06,3.7-4.59,8-4.59,12.9,0,4.21,1.19,7.68,3.56,10.42,2.38,2.74,5.39,4.11,9.03,4.11,3.19,0,6.2-.97,9.03-2.92,2.83-1.94,4.96-4.54,6.4-7.79,2.02-4.27,3.03-10.45,3.03-18.54v-15.96Z" style="fill: #f0faf1; stroke-width: 0px;"/>
      <polygon points="464.21 149.63 461.3 149.63 461.33 146.73 464.21 146.88 464.21 149.63" style="fill: #f0faf1; stroke-width: 0px;"/>
    </g>
  </g>
  <g>
    <path d="m114.49,177.82v-16.28h6.77c.7,0,1.34.15,1.92.44.57.29,1.07.68,1.49,1.16.42.48.75,1.02.99,1.62.24.6.36,1.21.36,1.83,0,.81-.16,1.57-.48,2.27-.32.7-.77,1.29-1.34,1.77-.57.47-1.24.76-2.01.87l4.06,6.33h-1.35l-3.94-6.15h-5.27v6.15h-1.17Zm1.17-7.22h5.71c.7,0,1.31-.19,1.83-.57.52-.38.92-.88,1.2-1.49s.42-1.26.42-1.95-.16-1.36-.49-1.96c-.33-.6-.76-1.09-1.31-1.47-.54-.38-1.15-.56-1.82-.56h-5.55v8Z" style="fill: #013138; stroke-width: 0px;"/>
    <path d="m133.75,178.05c-.84,0-1.62-.16-2.34-.49-.72-.33-1.34-.78-1.87-1.35s-.94-1.23-1.24-1.99c-.3-.75-.45-1.55-.45-2.39,0-1.13.25-2.15.76-3.06.5-.91,1.2-1.65,2.09-2.21.89-.56,1.88-.83,2.98-.83s2.13.28,3,.85c.87.56,1.56,1.31,2.08,2.23.51.92.77,1.93.77,3.03v.27c0,.09,0,.17-.02.23h-10.46c.06.9.31,1.71.76,2.44s1.01,1.3,1.71,1.72,1.46.63,2.28.63,1.61-.21,2.34-.64,1.25-.98,1.54-1.65l1.01.28c-.23.57-.59,1.07-1.09,1.51-.5.44-1.08.79-1.74,1.04-.67.25-1.36.38-2.1.38Zm-4.75-6.61h9.43c-.06-.93-.31-1.75-.73-2.46s-.99-1.28-1.69-1.69c-.7-.41-1.46-.62-2.3-.62s-1.61.21-2.29.62c-.69.41-1.25.97-1.67,1.69-.43.71-.67,1.54-.73,2.46Z" style="fill: #013138; stroke-width: 0px;"/>
    <path d="m147.88,178.05c-1.02,0-1.94-.27-2.74-.81-.8-.54-1.45-1.2-1.94-1.98v7.44h-1.15v-16.79h1.05v2.4c.49-.76,1.14-1.38,1.95-1.86.81-.48,1.67-.72,2.57-.72.84,0,1.61.17,2.29.51s1.29.81,1.8,1.39c.51.59.91,1.25,1.19,1.98.28.73.42,1.49.42,2.29,0,1.1-.23,2.11-.69,3.05-.46.94-1.1,1.69-1.92,2.25s-1.77.85-2.85.85Zm-.28-1.03c.7,0,1.33-.14,1.89-.43s1.04-.68,1.43-1.17c.4-.49.7-1.03.92-1.64.21-.61.32-1.23.32-1.87,0-.68-.12-1.34-.37-1.95s-.58-1.16-1.02-1.63c-.44-.47-.94-.85-1.51-1.13-.57-.28-1.2-.42-1.87-.42-.41,0-.85.08-1.32.25-.47.17-.91.4-1.33.71s-.77.65-1.04,1.04c-.27.39-.44.79-.5,1.2v3.91c.28.58.63,1.11,1.07,1.59.44.48.94.86,1.53,1.14.58.28,1.18.42,1.81.42Z" style="fill: #013138; stroke-width: 0px;"/>
    <path d="m161.09,178.05c-.84,0-1.62-.16-2.33-.48-.71-.32-1.33-.77-1.85-1.34-.52-.57-.92-1.23-1.22-1.96-.29-.74-.44-1.52-.44-2.34s.15-1.65.44-2.39c.29-.74.7-1.39,1.23-1.97s1.15-1.02,1.86-1.35c.71-.33,1.48-.49,2.31-.49s1.59.16,2.29.49c.7.33,1.32.78,1.86,1.35s.95,1.23,1.24,1.97c.29.74.44,1.53.44,2.39s-.15,1.6-.44,2.34c-.29.74-.7,1.39-1.23,1.96-.53.57-1.15,1.02-1.86,1.34-.71.32-1.48.48-2.3.48Zm-4.68-6.12c0,.94.21,1.8.63,2.57.42.77.98,1.38,1.69,1.84.7.46,1.48.68,2.34.68s1.64-.23,2.35-.7c.71-.46,1.28-1.09,1.7-1.87.42-.78.63-1.64.63-2.57s-.21-1.78-.63-2.56c-.42-.78-.98-1.4-1.69-1.86-.7-.46-1.48-.7-2.34-.7s-1.64.24-2.35.71c-.71.47-1.28,1.1-1.7,1.87-.42.78-.63,1.64-.63,2.58Z" style="fill: #013138; stroke-width: 0px;"/>
    <path d="m173.43,178.05c-.95,0-1.83-.16-2.64-.48-.81-.32-1.52-.81-2.13-1.47l.53-.8c.66.63,1.32,1.08,2,1.36.67.28,1.41.42,2.2.42,1.02,0,1.85-.21,2.49-.64.63-.43.95-1.02.95-1.78,0-.52-.15-.92-.45-1.2-.3-.28-.73-.51-1.28-.69-.56-.18-1.23-.36-2.03-.56-.81-.21-1.49-.43-2.05-.66s-.97-.53-1.25-.89c-.27-.37-.41-.86-.41-1.49,0-.78.19-1.42.58-1.93.39-.51.92-.89,1.58-1.14.67-.25,1.4-.38,2.21-.38.93,0,1.75.15,2.44.46.7.31,1.23.71,1.59,1.22l-.62.73c-.38-.49-.88-.85-1.49-1.09-.61-.24-1.28-.36-2.02-.36-.55,0-1.07.08-1.56.23s-.88.4-1.18.74c-.3.34-.45.8-.45,1.38,0,.46.11.82.33,1.07.22.26.55.47,1,.63.44.16.99.33,1.65.51.93.23,1.73.46,2.41.71.67.24,1.19.56,1.56.95.37.39.55.93.55,1.63,0,1.08-.41,1.93-1.24,2.56s-1.92.94-3.28.94Z" style="fill: #013138; stroke-width: 0px;"/>
    <path d="m180.65,163.19v-2.11h1.15v2.11h-1.15Zm0,14.63v-11.93h1.15v11.93h-1.15Z" style="fill: #013138; stroke-width: 0px;"/>
    <path d="m190.72,177.34c-.08.03-.23.11-.46.23s-.52.23-.87.33c-.35.1-.74.15-1.17.15s-.8-.08-1.16-.24c-.36-.16-.65-.4-.86-.73-.21-.32-.32-.72-.32-1.18v-9.05h-1.67v-.94h1.67v-4.08h1.15v4.08h2.78v.94h-2.78v8.78c.03.45.19.78.48,1,.29.22.63.33,1.01.33.47,0,.89-.08,1.24-.24.35-.16.56-.26.62-.31l.34.92Z" style="fill: #013138; stroke-width: 0px;"/>
    <path d="m197.44,178.05c-.84,0-1.62-.16-2.33-.48-.71-.32-1.33-.77-1.85-1.34-.52-.57-.92-1.23-1.22-1.96-.29-.74-.44-1.52-.44-2.34s.15-1.65.44-2.39c.29-.74.7-1.39,1.23-1.97s1.15-1.02,1.86-1.35c.71-.33,1.48-.49,2.31-.49s1.59.16,2.29.49c.7.33,1.32.78,1.86,1.35s.95,1.23,1.24,1.97c.29.74.44,1.53.44,2.39s-.15,1.6-.44,2.34c-.29.74-.7,1.39-1.23,1.96-.53.57-1.15,1.02-1.86,1.34-.71.32-1.48.48-2.3.48Zm-4.68-6.12c0,.94.21,1.8.63,2.57.42.77.98,1.38,1.69,1.84.7.46,1.48.68,2.34.68s1.64-.23,2.35-.7c.71-.46,1.28-1.09,1.7-1.87.42-.78.63-1.64.63-2.57s-.21-1.78-.63-2.56c-.42-.78-.98-1.4-1.69-1.86-.7-.46-1.48-.7-2.34-.7s-1.64.24-2.35.71c-.71.47-1.28,1.1-1.7,1.87-.42.78-.63,1.64-.63,2.58Zm5.07-8.53l-.8-.37,1.4-1.95h1.33l-1.93,2.32Z" style="fill: #013138; stroke-width: 0px;"/>
    <path d="m211.66,166.93c-1.07.03-2.01.35-2.81.95-.8.6-1.36,1.43-1.69,2.49v7.45h-1.15v-11.9h1.1v2.91c.41-.84.96-1.53,1.65-2.05s1.41-.83,2.18-.91c.15-.02.29-.02.41-.02h.3v1.08Z" style="fill: #013138; stroke-width: 0px;"/>
    <path d="m213.84,163.19v-2.11h1.15v2.11h-1.15Zm0,14.63v-11.93h1.15v11.93h-1.15Z" style="fill: #013138; stroke-width: 0px;"/>
    <path d="m223.58,178.05c-.84,0-1.62-.16-2.33-.48-.71-.32-1.33-.77-1.85-1.34-.52-.57-.92-1.23-1.22-1.96-.29-.74-.44-1.52-.44-2.34s.15-1.65.44-2.39c.29-.74.7-1.39,1.23-1.97.53-.57,1.15-1.02,1.86-1.35.71-.33,1.48-.49,2.3-.49s1.59.16,2.29.49c.7.33,1.32.78,1.86,1.35s.95,1.23,1.24,1.97c.29.74.44,1.53.44,2.39s-.15,1.6-.44,2.34c-.29.74-.7,1.39-1.23,1.96-.53.57-1.15,1.02-1.86,1.34-.71.32-1.48.48-2.3.48Zm-4.68-6.12c0,.94.21,1.8.63,2.57s.98,1.38,1.69,1.84c.7.46,1.48.68,2.34.68s1.64-.23,2.35-.7c.71-.46,1.28-1.09,1.7-1.87.42-.78.63-1.64.63-2.57s-.21-1.78-.63-2.56c-.42-.78-.98-1.4-1.69-1.86-.7-.46-1.48-.7-2.34-.7s-1.64.24-2.35.71-1.28,1.1-1.7,1.87c-.42.78-.63,1.64-.63,2.58Z" style="fill: #013138; stroke-width: 0px;"/>
    <path d="m242.8,161.54h1.01l6.88,16.28h-1.24l-2.22-5.37h-7.87l-2.23,5.37h-1.26l6.93-16.28Zm4.03,9.95l-3.53-8.53-3.54,8.53h7.07Z" style="fill: #013138; stroke-width: 0px;"/>
    <path d="m257.57,178.05c-.83,0-1.6-.16-2.32-.49-.72-.33-1.35-.78-1.88-1.35s-.95-1.23-1.25-1.98c-.3-.75-.45-1.55-.45-2.4,0-1.14.25-2.17.76-3.08.5-.91,1.2-1.64,2.09-2.19.89-.55,1.9-.82,3.03-.82s2.04.25,2.87.75,1.45,1.17,1.86,2.03l-1.12.37c-.35-.66-.85-1.17-1.5-1.55-.65-.38-1.36-.56-2.14-.56-.87,0-1.66.22-2.36.66-.7.44-1.27,1.05-1.69,1.81-.42.77-.63,1.63-.63,2.59s.21,1.81.64,2.6c.43.79,1,1.42,1.71,1.88.71.46,1.49.7,2.35.7.55,0,1.09-.1,1.62-.31.53-.21.99-.48,1.38-.81.39-.34.65-.7.77-1.08l1.12.32c-.2.57-.54,1.07-1.03,1.5-.49.44-1.06.78-1.71,1.03-.65.25-1.35.38-2.1.38Z" style="fill: #013138; stroke-width: 0px;"/>
    <path d="m264.02,174.39c0-.72.21-1.34.64-1.86.43-.53,1.02-.94,1.77-1.23.75-.3,1.61-.45,2.59-.45.61,0,1.25.05,1.9.16.66.11,1.25.25,1.77.44v-1.12c0-1.09-.32-1.97-.95-2.62-.63-.65-1.51-.98-2.63-.98-.6,0-1.22.12-1.86.37-.64.25-1.3.6-1.97,1.06l-.48-.83c.78-.52,1.53-.91,2.26-1.18.73-.27,1.45-.4,2.17-.4,1.42,0,2.55.42,3.37,1.26.83.84,1.24,1.98,1.24,3.43v5.89c0,.18.04.32.13.41.08.09.21.15.38.16v.94c-.14.01-.25.02-.34.02h-.23c-.29-.04-.52-.17-.68-.37-.16-.2-.25-.42-.26-.67v-.94c-.55.69-1.26,1.22-2.12,1.61-.86.38-1.77.57-2.72.57-.75,0-1.43-.16-2.03-.48-.6-.32-1.08-.76-1.42-1.32-.34-.56-.52-1.18-.52-1.86Zm8.21.98c.15-.2.27-.39.34-.57.08-.18.11-.35.11-.5v-1.96c-.55-.21-1.12-.37-1.72-.48-.6-.11-1.21-.16-1.83-.16-1.19,0-2.16.24-2.9.71-.74.47-1.11,1.11-1.11,1.92,0,.5.13.97.39,1.39.26.43.62.77,1.09,1.03.47.26,1,.39,1.62.39.86,0,1.65-.16,2.37-.49s1.27-.75,1.64-1.27Z" style="fill: #013138; stroke-width: 0px;"/>
    <path d="m276.49,171.91c0-1.11.24-2.13.71-3.06.47-.93,1.12-1.68,1.95-2.25.83-.57,1.77-.86,2.82-.86s1.96.27,2.76.83,1.43,1.21,1.89,1.97v-7.45h1.15v15.23c0,.18.04.32.13.41s.2.15.36.16v.94c-.25.03-.43.04-.55.02-.28-.04-.5-.17-.69-.39-.18-.21-.28-.44-.28-.69v-1.33c-.49.79-1.15,1.43-1.97,1.9-.83.47-1.67.71-2.55.71-.83,0-1.59-.17-2.29-.51-.7-.34-1.31-.8-1.82-1.38-.51-.58-.91-1.23-1.19-1.96-.28-.73-.42-1.49-.42-2.29Zm10.14,1.92v-3.9c-.21-.58-.56-1.11-1.03-1.59-.47-.48-1.01-.86-1.61-1.14-.6-.28-1.19-.42-1.77-.42-.69,0-1.31.15-1.87.43-.56.29-1.04.68-1.45,1.16s-.71,1.04-.93,1.66c-.21.62-.32,1.25-.32,1.91s.12,1.31.37,1.93c.24.62.58,1.16,1.02,1.64s.94.85,1.51,1.12,1.2.4,1.87.4c.41,0,.85-.08,1.32-.25s.91-.4,1.33-.7c.42-.3.77-.64,1.06-1.03.28-.39.45-.79.49-1.22Z" style="fill: #013138; stroke-width: 0px;"/>
    <path d="m296.49,178.05c-.84,0-1.62-.16-2.34-.49-.72-.33-1.34-.78-1.87-1.35-.53-.57-.94-1.23-1.24-1.99-.3-.75-.45-1.55-.45-2.39,0-1.13.25-2.15.76-3.06.5-.91,1.2-1.65,2.09-2.21.89-.56,1.88-.83,2.98-.83s2.13.28,3,.85c.87.56,1.56,1.31,2.08,2.23.51.92.77,1.93.77,3.03v.27c0,.09,0,.17-.02.23h-10.46c.06.9.31,1.71.76,2.44.44.73,1.01,1.3,1.71,1.72s1.46.63,2.28.63,1.61-.21,2.34-.64c.73-.43,1.25-.98,1.54-1.65l1.01.28c-.23.57-.59,1.07-1.09,1.51-.5.44-1.08.79-1.74,1.04-.67.25-1.37.38-2.1.38Zm-4.75-6.61h9.43c-.06-.93-.31-1.75-.73-2.46s-.99-1.28-1.69-1.69c-.7-.41-1.46-.62-2.3-.62s-1.61.21-2.29.62c-.69.41-1.25.97-1.67,1.69s-.67,1.54-.73,2.46Zm2.02-8.51l2.2-1.86h.85l2.22,1.86-.69.39-1.95-1.45-1.95,1.45-.69-.39Z" style="fill: #013138; stroke-width: 0px;"/>
    <path d="m322.31,177.82h-1.15v-6.62c0-1.51-.23-2.62-.7-3.33-.47-.71-1.18-1.07-2.14-1.07s-1.85.35-2.6,1.04c-.76.69-1.29,1.58-1.59,2.66v7.33h-1.15v-6.62c0-1.52-.23-2.64-.69-3.35-.46-.71-1.17-1.06-2.13-1.06s-1.85.34-2.6,1.02-1.3,1.56-1.62,2.66v7.36h-1.15v-11.9h1.08v2.85c.5-.97,1.15-1.72,1.95-2.25s1.67-.79,2.61-.79,1.81.29,2.44.88c.63.59,1.01,1.37,1.14,2.34.57-1.07,1.24-1.87,2.02-2.41.78-.54,1.67-.81,2.66-.81.66,0,1.21.12,1.66.35.45.24.83.58,1.12,1.03s.51,1,.64,1.66c.13.66.2,1.39.2,2.22v6.83Z" style="fill: #013138; stroke-width: 0px;"/>
    <path d="m325.78,163.19v-2.11h1.15v2.11h-1.15Zm0,14.63v-11.93h1.15v11.93h-1.15Z" style="fill: #013138; stroke-width: 0px;"/>
    <path d="m335.59,178.05c-.83,0-1.6-.16-2.32-.49-.72-.33-1.35-.78-1.88-1.35s-.95-1.23-1.25-1.98c-.3-.75-.45-1.55-.45-2.4,0-1.14.25-2.17.76-3.08.5-.91,1.2-1.64,2.09-2.19.89-.55,1.9-.82,3.03-.82s2.04.25,2.87.75,1.45,1.17,1.86,2.03l-1.12.37c-.35-.66-.85-1.17-1.5-1.55-.65-.38-1.36-.56-2.14-.56-.87,0-1.66.22-2.36.66-.7.44-1.27,1.05-1.69,1.81-.42.77-.63,1.63-.63,2.59s.21,1.81.64,2.6c.43.79,1,1.42,1.71,1.88.71.46,1.49.7,2.35.7.55,0,1.09-.1,1.62-.31.53-.21.99-.48,1.38-.81.39-.34.65-.7.77-1.08l1.12.32c-.2.57-.54,1.07-1.03,1.5-.49.44-1.06.78-1.71,1.03-.65.25-1.35.38-2.1.38Z" style="fill: #013138; stroke-width: 0px;"/>
    <path d="m347.91,178.05c-.84,0-1.62-.16-2.33-.48-.71-.32-1.33-.77-1.85-1.34s-.92-1.23-1.21-1.96c-.29-.74-.44-1.52-.44-2.34s.15-1.65.44-2.39c.29-.74.7-1.39,1.23-1.97s1.15-1.02,1.86-1.35c.71-.33,1.48-.49,2.3-.49s1.59.16,2.29.49c.7.33,1.32.78,1.86,1.35s.95,1.23,1.24,1.97c.29.74.44,1.53.44,2.39s-.15,1.6-.44,2.34c-.29.74-.7,1.39-1.23,1.96s-1.15,1.02-1.86,1.34c-.71.32-1.48.48-2.31.48Zm-4.68-6.12c0,.94.21,1.8.63,2.57.42.77.98,1.38,1.69,1.84.7.46,1.48.68,2.34.68s1.64-.23,2.35-.7c.71-.46,1.28-1.09,1.7-1.87.42-.78.63-1.64.63-2.57s-.21-1.78-.63-2.56c-.42-.78-.98-1.4-1.69-1.86-.7-.46-1.48-.7-2.34-.7s-1.64.24-2.35.71-1.28,1.1-1.7,1.87c-.42.78-.63,1.64-.63,2.58Z" style="fill: #013138; stroke-width: 0px;"/>
  </g>
</svg>