<?xml version="1.0" encoding="UTF-8"?>
<svg id="Camada_1" data-name="Camada 1" xmlns="http://www.w3.org/2000/svg" viewBox="0 0 464.21 182.94">
  <defs>
    <style>
      .cls-1 {
        fill: #ebad2c;
      }

      .cls-2 {
        letter-spacing: -.02em;
      }

      .cls-3 {
        letter-spacing: -.01em;
      }

      .cls-4 {
        letter-spacing: -.01em;
      }

      .cls-5 {
        fill: #f0faf1;
      }

      .cls-6 {
        fill: #002933;
        font-family: RalewayRoman-Light, Raleway;
        font-size: 22.93px;
        font-variation-settings: 'wght' 300;
        font-weight: 300;
      }

      .cls-7 {
        letter-spacing: 0em;
      }

      .cls-8 {
        letter-spacing: -.03em;
      }
    </style>
  </defs>
  <g>
    <path class="cls-1" d="M120.19,24.23c-.3,1.77-1.33,6.42-5.3,10.61-4.08,4.29-8.83,5.52-10.57,5.89-.03.03-.17.18-.17.42,0,.15.05.3.16.42,2.07.7,6.4,2.48,10.24,6.72,3.74,4.13,5.11,8.47,5.63,10.6.17.19.44.25.67.16.22-.09.39-.29.39-.57V24.66c0-.55-.67-.82-1.05-.42Z"/>
    <path class="cls-1" d="M121.1,24.23c.3,1.77,1.33,6.42,5.3,10.61,4.08,4.29,8.83,5.52,10.57,5.89.03.03.17.18.17.42,0,.15-.05.3-.16.42-2.07.7-6.4,2.48-10.24,6.72-3.74,4.13-5.11,8.47-5.63,10.6-.17.19-.44.25-.67.16-.22-.09-.39-.29-.39-.57V24.66c0-.55.67-.82,1.05-.42Z"/>
  </g>
  <g>
    <path class="cls-5" d="M100.6,67.94l28.32-3.54v56.63l.1,7.45c0,4.44.26,7.69.79,9.75.52,2.06,1.54,3.77,3.05,5.14,1.83,1.76,5.21,3.1,10.13,4.02v2.06h-43.46v-2.06c3.93-.52,6.75-1.25,8.46-2.2,1.7-.95,3.08-2.56,4.13-4.84.72-1.5,1.23-3.77,1.52-6.8.29-3.03.44-7.42.44-13.16v-24.16c0-6.72-.16-11.43-.49-14.13-.33-2.71-1.05-4.91-2.16-6.6-1.12-1.83-2.46-3.15-4.03-3.96-1.57-.81-3.83-1.32-6.78-1.52v-2.06Z"/>
    <path class="cls-5" d="M176.15,64.91c.92,3.82,1.39,7.38,1.39,10.68v1.58c8.13-8.17,17.8-12.26,29.01-12.26,8.39,0,15.14,1.96,20.25,5.89,5.05,3.86,7.57,9.36,7.57,16.5v41.64c0,4.45.26,7.71.79,9.77.52,2.06,1.54,3.78,3.05,5.16,1.83,1.77,5.21,3.11,10.13,4.03v2.06l-45.95-.14c-.05-.75-.1-1.5-.15-2.25,1.01.24,6.44,1.41,11.1-1.88.42-.3,2.69-1.86,4.13-4.86.72-1.51,1.23-3.78,1.52-6.82s.44-7.41.44-13.11v-20.82c0-7.14-.24-12.37-.73-15.71-.49-3.34-1.42-6.02-2.8-8.05-1.5-2.29-3.66-4.07-6.47-5.35-2.81-1.28-5.92-1.92-9.32-1.92-3.66,0-7.08.72-10.25,2.16-3.17,1.44-5.67,3.4-7.5,5.89-1.96,2.62-3.26,5.58-3.88,8.89-.62,3.31-.93,8.79-.93,16.45v19.25l.1,7.27c0,.29.04,6,.79,9.77.29,1.49.72,2.78,1.64,4.01.09.11.29.38.64.75,2.04,2.17,4.7,3.28,4.84,3.34,3.39,1.39,6.52.98,7.76.75v2.32c-15.05.02-30.11.05-45.16.07v-2.06c3.93-.52,6.75-1.25,8.46-2.2,1.7-.95,3.08-2.56,4.13-4.84.72-1.5,1.23-3.77,1.52-6.8.29-3.03.44-7.42.44-13.16v-24.16c0-6.72-.16-11.43-.49-14.13-.33-2.71-1.05-4.91-2.16-6.6-1.12-1.83-2.46-3.15-4.03-3.96-1.57-.81-3.83-1.32-6.78-1.52v-2.06l26.93-3.54Z"/>
    <path class="cls-5" d="M0,145.92l.31-43.17,2.4.1c2.93,10.99,6.41,19.64,10.45,25.97,7.59,11.68,17.14,17.52,28.64,17.52,8.01,0,14.63-2.68,19.86-8.05,5.23-5.37,7.84-12.16,7.84-20.38,0-3.55-.57-7.18-1.72-10.87-1.15-3.69-2.7-6.86-4.65-9.51-2.02-2.72-4.86-5.33-8.52-7.84-3.66-2.51-9.25-5.68-16.78-9.51-6.62-3.34-11.69-6.17-15.21-8.47-3.52-2.3-6.36-4.63-8.52-7-5.99-6.55-8.99-14.53-8.99-23.94,0-5.78,1.17-11.36,3.5-16.73,2.33-5.37,5.59-9.96,9.77-13.8C25.78,3.42,34.53,0,44.63,0c3.27,0,6.31.33,9.09.99,2.79.66,6.52,1.97,11.18,3.92,3.48,1.4,5.85,2.28,7.11,2.67,1.25.38,2.37.58,3.35.58,2.44,0,4.08-1.78,4.91-5.33h2.4l.73,41.5h-2.4c-1.88-6.62-3.5-11.69-4.85-15.21-1.36-3.52-2.97-6.78-4.85-9.77-3.41-5.44-7.17-9.46-11.27-12.07s-8.83-3.92-14.19-3.92c-7.79,0-13.95,2.65-18.47,7.95-1.88,2.16-3.36,4.71-4.44,7.64-1.08,2.93-1.62,5.86-1.62,8.79,0,11.65,7.48,21.03,22.44,28.15l14.72,7.11c11.34,5.37,19.52,11.3,24.53,17.79,5.71,7.25,8.56,15.7,8.56,25.32,0,6.4-1.29,12.51-3.87,18.35-3.62,8.13-9.06,14.41-16.31,18.82-7.25,4.41-15.78,6.62-25.61,6.62-8.99,0-17.63-1.78-25.92-5.33-4.32-1.88-6.9-2.96-7.74-3.24-.84-.28-1.78-.42-2.82-.42-3.34,0-5.64,1.67-6.9,5.02H0Z"/>
    <path class="cls-5" d="M361.98,81.18c2.39-4.03,5.09-7.07,8.08-9.12,1.97-1.35,3.55-2.63,6.1-3.28,5.34-1.37,9.76.94,10.51,1.36,1.36.74,5.25,2.86,6.08,6.86.13.66.57,2.8-.67,4.72-.04.06-.08.13-.14.21-1.3,1.78-4.89,2.67-6.98,1.06-1.67-1.28-1.7-3.63-1.72-5.03-.02-1.22-.16-7.02-2.85-8.02-1.7-.63-3.27.22-5.51,1.43-5.26,2.84-7.22,7.85-7.79,8.85,0,0,0,0,0,0-4.2,8.95-4.01,19.4-3.79,23.51v17.95l.1,7.29c0,4.35.26,7.53.8,9.55.53,2.01,1.56,3.7,3.09,5.04,1.86,1.73,5.29,3.04,10.27,3.94v2.02h-44.08v-2.02c3.99-.51,6.85-1.23,8.58-2.15,1.73-.92,3.12-2.5,4.19-4.73.73-1.47,1.25-3.68,1.55-6.64.3-2.96.45-7.25.45-12.86v-23.61c0-6.56-.17-11.17-.5-13.81-.33-2.65-1.06-4.8-2.19-6.45-1.13-1.78-2.49-3.08-4.09-3.87-1.59-.8-3.89-1.29-6.88-1.48v-2.02l25.71-3.46c1.14,5.75,1.71,10.68,1.71,14.79Z"/>
    <g>
      <path class="cls-5" d="M318.84,149.99c-2.73-.1-7.05-.25-10.91-2.71-3.44-2.19-5.29-5.42-6.28-7.84-4.38,3.92-7.69,6.51-9.91,7.75-4.25,2.35-9.19,3.53-14.81,3.53-7.2,0-12.9-1.73-17.12-5.2-4.22-3.46-6.33-8.14-6.33-14.02,0-5.43,1.73-9.97,5.19-13.63,1.96-2.03,4.21-3.64,6.76-4.85,2.55-1.21,6.24-2.44,11.07-3.68,5.68-1.44,9.88-2.65,12.59-3.63,2.71-.98,4.98-2.16,6.81-3.53,2.09-1.5,3.53-3.27,4.31-5.3.78-2.02,1.18-4.84,1.18-8.43,0-7.65-1.44-13.24-4.31-16.77-1.31-1.63-2.99-2.94-5.05-3.92-1.42-.68-3.44-1.13-4.03-1.28-1.2-.3-1.8-.45-2.28-.48-2.79-.16-4.93,1.36-5.6,1.86-.59.43-1.03.76-1.46,1.35-1.11,1.52-.92,3.1-1.01,4.84-.09,1.65-.3,5.68-2.36,7.31-.53.42-2.15,1.45-5.85.34-.5-.38-1.87-1.54-2.25-3.49-.34-1.74.32-3.13.79-4.16.73-1.61,1.77-2.59,2.36-3.15.21-.2.39-.35.56-.49,0,0,.77-.63,1.69-1.2,5.06-3.14,8.89-3.99,8.89-3.99,1.55-.34,2.7-.42,3.97-.51,4.79-.32,8.45.42,11.21.99,3.83.8,7.09,1.8,10.99,4.02,4.25,2.42,6.9,5.56,7.95,9.41.52,1.96.79,5.26.79,9.9v36.28c.15,4.96.46,9.19.78,12.55.29,3.07.56,5.14,2.17,6.81,1.48,1.54,3.35,1.95,5.21,2.36,4.51.99,2.86,2.77.88,2.88,0,0-3.41.19-6.58.07ZM301.59,100.8c-3.52,2.94-7.39,5.53-11.62,7.75-4.75,2.55-8.04,4.48-9.86,5.79-1.82,1.31-3.48,2.88-4.98,4.71-3.06,3.79-4.59,8.21-4.59,13.24,0,4.31,1.19,7.88,3.56,10.69,2.38,2.81,5.39,4.22,9.03,4.22,3.19,0,6.2-1,9.03-2.99,2.83-1.99,4.96-4.66,6.4-7.99,2.02-4.38,3.03-10.72,3.03-19.02v-16.38Z"/>
      <polygon class="cls-5" points="327.42 149.93 324.52 149.93 324.54 147.03 327.42 147.18 327.42 149.93"/>
    </g>
    <g>
      <path class="cls-5" d="M456.64,149.65c-2.73-.1-7.05-.25-10.91-2.64-3.44-2.13-5.29-5.29-6.28-7.65-4.38,3.82-7.69,6.34-9.91,7.55-4.25,2.29-9.19,3.44-14.81,3.44-7.2,0-12.9-1.69-17.12-5.07-4.22-3.38-6.33-7.93-6.33-13.67,0-5.29,1.73-9.72,5.19-13.28,1.96-1.97,4.21-3.55,6.76-4.73,2.55-1.18,6.24-2.37,11.07-3.58,5.68-1.4,9.88-2.58,12.59-3.54,2.71-.96,4.98-2.1,6.81-3.44,2.09-1.46,3.53-3.18,4.31-5.16.78-1.97,1.18-4.71,1.18-8.22,0-7.45-1.44-12.9-4.31-16.34-1.31-1.59-2.99-2.87-5.05-3.82-1.42-.66-3.44-1.1-4.03-1.24-1.2-.29-1.8-.44-2.28-.47-2.79-.16-4.93,1.33-5.6,1.81-.59.42-1.03.74-1.46,1.32-1.11,1.48-.92,3.02-1.01,4.71-.09,1.61-.3,5.53-2.36,7.13-.53.41-2.15,1.41-5.85.33-.5-.37-1.87-1.5-2.25-3.4-.34-1.7.32-3.05.79-4.06.73-1.57,1.77-2.53,2.36-3.07.21-.19.39-.34.56-.47,0,0,.77-.61,1.69-1.17,5.06-3.06,8.89-3.89,8.89-3.89,1.55-.33,2.7-.41,3.97-.49,4.79-.31,8.45.41,11.21.97,3.83.78,7.09,1.76,10.99,3.92,4.25,2.36,6.9,5.42,7.95,9.17.52,1.91.79,5.13.79,9.65v35.36c.15,4.83.46,8.96.78,12.23.29,3,.56,5.01,2.17,6.63,1.48,1.5,3.35,1.9,5.21,2.3,2.12.45,1.93,2.75.88,2.81,0,0-3.41.18-6.58.07ZM439.38,101.71c-3.52,2.87-7.39,5.39-11.62,7.55-4.75,2.48-8.04,4.36-9.86,5.64-1.82,1.27-3.48,2.8-4.98,4.59-3.06,3.7-4.59,8-4.59,12.9,0,4.21,1.19,7.68,3.56,10.42,2.38,2.74,5.39,4.11,9.03,4.11,3.19,0,6.2-.97,9.03-2.92,2.83-1.94,4.96-4.54,6.4-7.79,2.02-4.27,3.03-10.45,3.03-18.54v-15.96Z"/>
      <polygon class="cls-5" points="464.21 149.63 461.3 149.63 461.33 146.73 464.21 146.88 464.21 149.63"/>
    </g>
  </g>
  <text class="cls-6" transform="translate(112.35 177.82)"><tspan class="cls-2" x="0" y="0">R</tspan><tspan x="14.52" y="0">eposi</tspan><tspan class="cls-3" x="71.23" y="0">t</tspan><tspan x="78.34" y="0">ório</tspan><tspan class="cls-8" x="118.06" y="0"> </tspan><tspan class="cls-4" x="123.25" y="0">A</tspan><tspan x="138.38" y="0">cadêmi</tspan><tspan class="cls-7" x="216.4" y="0">c</tspan><tspan x="228.79" y="0">o</tspan></text>
</svg>